<svg width="22" height="22" viewBox="0 0 22 22" fill="none" xmlns="http://www.w3.org/2000/svg">
<path d="M1.10051 19.4853C0.709986 19.8758 0.709986 20.509 1.10051 20.8995C1.49103 21.29 2.1242 21.29 2.51472 20.8995L1.80762 20.1924L1.10051 19.4853ZM21.1924 1.80761C21.1924 1.25532 20.7447 0.807607 20.1924 0.807606L11.1924 0.807607C10.6401 0.807607 10.1924 1.25532 10.1924 1.80761C10.1924 2.35989 10.6401 2.80761 11.1924 2.80761L19.1924 2.80761L19.1924 10.8076C19.1924 11.3599 19.6401 11.8076 20.1924 11.8076C20.7447 11.8076 21.1924 11.3599 21.1924 10.8076L21.1924 1.80761ZM1.80762 20.1924L2.51472 20.8995L20.8995 2.51471L20.1924 1.80761L19.4853 1.1005L1.10051 19.4853L1.80762 20.1924Z" fill="#9523CD"/>
</svg>
